<svg xmlns="http://www.w3.org/2000/svg" width="288" height="288" viewBox="0 0 288 288" role="img" aria-label="Gopher icon">
<title>Gopher icon</title>
<path fill="#76e0fd" fill-rule="evenodd" d="M 21 43 L 18 46 L 15 53 L 15 58 L 16 59 L 17 64 L 20 67 L 20 68 L 24 71 L 30 74 L 32 74 L 35 76 L 37 76 L 40 78 L 40 81 L 39 82 L 39 85 L 38 86 L 38 90 L 37 91 L 37 100 L 36 101 L 36 287 L 251 287 L 251 101 L 250 100 L 250 91 L 249 90 L 249 86 L 248 85 L 248 82 L 246 78 L 248 76 L 252 75 L 260 71 L 262 69 L 263 69 L 268 62 L 268 59 L 269 58 L 269 53 L 266 46 L 263 43 L 257 40 L 248 40 L 240 44 L 230 52 L 226 48 L 225 48 L 222 45 L 219 44 L 217 42 L 207 37 L 205 37 L 204 36 L 202 36 L 195 33 L 192 33 L 191 32 L 188 32 L 187 31 L 183 31 L 182 30 L 177 30 L 176 29 L 169 29 L 168 28 L 155 28 L 154 27 L 133 27 L 132 28 L 119 28 L 118 29 L 111 29 L 110 30 L 105 30 L 104 31 L 100 31 L 99 32 L 92 33 L 91 34 L 83 36 L 80 38 L 78 38 L 70 42 L 68 44 L 61 48 L 56 53 L 55 53 L 51 49 L 50 49 L 41 42 L 37 41 L 36 40 L 27 40 Z M 24 54 L 26 52 L 33 52 L 34 53 L 36 53 L 43 57 L 47 61 L 47 63 L 46 64 L 43 64 L 40 61 L 36 61 L 35 62 L 32 62 L 27 67 L 26 67 L 25 66 L 25 62 L 28 59 L 32 57 L 25 57 L 24 56 Z M 260 53 L 260 55 L 258 57 L 257 56 L 254 56 L 255 56 L 260 61 L 260 63 L 258 65 L 257 65 L 254 61 L 250 59 L 245 59 L 240 63 L 238 63 L 237 62 L 237 60 L 242 55 L 248 52 L 250 52 L 251 51 L 257 51 Z M 48 88 L 49 87 L 49 80 L 50 79 L 51 74 L 53 71 L 53 69 L 55 67 L 57 63 L 66 54 L 74 49 L 76 49 L 79 47 L 82 47 L 83 46 L 88 46 L 89 45 L 102 46 L 103 47 L 106 47 L 109 49 L 111 49 L 119 54 L 128 63 L 133 71 L 133 73 L 135 76 L 135 79 L 136 80 L 137 93 L 136 94 L 136 99 L 135 100 L 135 103 L 131 111 L 138 108 L 148 108 L 149 109 L 153 110 L 151 107 L 151 105 L 149 102 L 149 99 L 148 98 L 148 81 L 149 80 L 150 74 L 155 65 L 166 54 L 176 49 L 182 48 L 183 47 L 197 47 L 198 48 L 201 48 L 202 49 L 204 49 L 211 52 L 222 61 L 222 62 L 227 68 L 230 74 L 230 76 L 232 80 L 233 92 L 232 93 L 232 99 L 227 111 L 225 113 L 225 114 L 215 124 L 204 130 L 201 130 L 200 131 L 197 131 L 196 132 L 184 132 L 183 131 L 177 130 L 180 135 L 180 140 L 179 141 L 180 142 L 180 148 L 176 153 L 172 155 L 170 155 L 169 156 L 161 156 L 160 155 L 160 172 L 157 176 L 155 177 L 131 177 L 129 176 L 126 172 L 126 154 L 125 156 L 115 155 L 109 152 L 106 148 L 106 142 L 107 141 L 106 140 L 106 135 L 109 130 L 102 133 L 95 133 L 94 134 L 91 134 L 90 133 L 83 133 L 69 127 L 66 124 L 65 124 L 55 113 L 49 99 L 49 92 L 48 91 Z"/>
<path fill="#384e54" fill-rule="evenodd" d="M 25 55 L 26 56 L 30 55 L 31 56 L 34 56 L 35 57 L 29 60 L 26 63 L 26 65 L 28 65 L 28 64 L 33 60 L 38 60 L 39 59 L 44 63 L 45 63 L 45 61 L 42 58 L 35 54 L 26 54 Z M 258 53 L 249 53 L 243 56 L 240 59 L 239 59 L 238 61 L 239 62 L 244 58 L 248 57 L 255 60 L 256 62 L 258 63 L 257 59 L 252 56 L 254 54 L 255 55 L 258 55 Z M 281 31 L 272 23 L 265 20 L 262 20 L 261 19 L 250 19 L 249 20 L 243 21 L 237 24 L 230 30 L 229 30 L 219 23 L 211 19 L 209 19 L 206 17 L 204 17 L 197 14 L 194 14 L 193 13 L 190 13 L 189 12 L 185 12 L 184 11 L 177 11 L 176 10 L 147 10 L 146 9 L 144 9 L 143 10 L 111 10 L 110 11 L 97 12 L 96 13 L 89 14 L 88 15 L 83 16 L 80 18 L 78 18 L 68 23 L 58 30 L 49 23 L 45 21 L 43 21 L 42 20 L 38 20 L 37 19 L 27 19 L 26 20 L 20 21 L 14 24 L 6 32 L 2 40 L 2 44 L 1 45 L 1 53 L 2 54 L 2 58 L 7 68 L 15 76 L 22 80 L 22 83 L 21 84 L 21 87 L 20 88 L 20 93 L 19 94 L 19 105 L 18 106 L 18 287 L 35 287 L 35 94 L 36 93 L 36 88 L 37 87 L 37 84 L 38 83 L 38 80 L 39 79 L 38 78 L 33 77 L 23 72 L 16 65 L 15 61 L 14 60 L 14 51 L 19 43 L 20 43 L 23 40 L 25 40 L 29 38 L 34 38 L 35 39 L 38 39 L 42 41 L 55 51 L 56 51 L 69 41 L 81 35 L 83 35 L 84 34 L 86 34 L 93 31 L 96 31 L 97 30 L 101 30 L 102 29 L 106 29 L 107 28 L 113 28 L 114 27 L 122 27 L 123 26 L 164 26 L 165 27 L 173 27 L 174 28 L 180 28 L 181 29 L 190 30 L 191 31 L 194 31 L 195 32 L 206 35 L 218 41 L 230 50 L 244 40 L 246 40 L 250 38 L 255 38 L 256 39 L 259 39 L 264 42 L 269 48 L 269 50 L 270 51 L 270 61 L 268 65 L 261 72 L 248 78 L 249 80 L 249 83 L 250 84 L 250 87 L 251 88 L 251 93 L 252 94 L 252 287 L 269 287 L 269 106 L 268 105 L 268 94 L 267 93 L 267 88 L 266 87 L 265 81 L 267 79 L 273 76 L 280 69 L 286 57 L 287 46 L 286 45 L 286 41 L 285 40 L 285 38 Z"/>
<path fill="#fefefe" fill-rule="evenodd" d="M 127 152 L 127 164 L 128 165 L 128 167 L 130 169 L 156 169 L 159 165 L 159 152 L 158 151 L 134 151 L 133 152 L 130 152 L 128 151 Z M 187 48 L 186 49 L 181 49 L 180 50 L 177 50 L 174 52 L 170 53 L 168 55 L 164 57 L 158 63 L 158 64 L 154 69 L 152 73 L 151 78 L 150 79 L 150 82 L 149 83 L 149 95 L 150 96 L 150 100 L 151 101 L 151 103 L 154 110 L 156 111 L 162 117 L 163 121 L 172 125 L 175 128 L 177 128 L 181 130 L 189 130 L 191 131 L 192 130 L 199 130 L 200 129 L 208 127 L 210 125 L 216 122 L 222 116 L 222 115 L 225 112 L 230 101 L 230 97 L 231 96 L 231 82 L 230 81 L 229 75 L 225 67 L 216 57 L 215 57 L 210 53 L 203 50 L 195 49 L 194 48 Z M 203 71 L 212 71 L 213 72 L 215 72 L 223 79 L 226 86 L 226 93 L 223 100 L 218 105 L 211 108 L 204 108 L 197 105 L 192 100 L 189 93 L 189 85 L 192 79 L 197 74 Z M 85 47 L 84 48 L 81 48 L 80 49 L 78 49 L 71 52 L 65 57 L 64 57 L 57 65 L 56 68 L 53 72 L 53 74 L 51 78 L 51 81 L 50 82 L 50 96 L 51 97 L 51 101 L 52 102 L 52 104 L 57 114 L 62 119 L 62 120 L 63 120 L 68 125 L 81 131 L 85 131 L 86 132 L 99 132 L 100 131 L 104 131 L 105 130 L 107 130 L 111 128 L 114 125 L 122 121 L 124 119 L 124 117 L 130 111 L 132 107 L 133 102 L 134 101 L 134 98 L 135 97 L 135 82 L 134 81 L 134 78 L 133 77 L 133 75 L 130 68 L 128 66 L 126 62 L 120 56 L 119 56 L 114 52 L 110 50 L 105 49 L 104 48 L 101 48 L 100 47 Z M 107 71 L 115 71 L 122 74 L 128 81 L 129 83 L 129 86 L 130 87 L 130 92 L 129 93 L 129 96 L 126 101 L 120 106 L 116 107 L 115 108 L 108 108 L 101 105 L 95 99 L 94 95 L 93 94 L 93 84 L 95 80 L 102 73 L 106 72 Z"/>
<path fill="#1a1614" fill-rule="evenodd" d="M 125 119 L 125 123 L 126 125 L 130 129 L 134 131 L 137 131 L 138 132 L 148 132 L 149 131 L 152 131 L 156 129 L 161 123 L 161 119 L 160 117 L 156 113 L 149 110 L 137 110 L 136 111 L 134 111 L 130 113 Z M 203 73 L 202 74 L 198 75 L 193 80 L 192 84 L 191 85 L 191 94 L 194 100 L 200 105 L 202 105 L 203 106 L 212 106 L 218 103 L 223 97 L 223 95 L 224 94 L 224 85 L 223 84 L 222 80 L 217 75 L 213 74 L 212 73 Z M 106 73 L 102 75 L 97 80 L 95 84 L 95 87 L 94 88 L 94 90 L 95 91 L 95 95 L 97 99 L 102 104 L 106 105 L 107 106 L 116 106 L 123 102 L 126 98 L 127 94 L 128 93 L 128 86 L 125 79 L 119 74 L 117 74 L 116 73 Z"/>
<path fill="#c28b73" fill-rule="evenodd" d="M 108 134 L 108 141 L 111 144 L 115 145 L 116 146 L 121 146 L 122 147 L 165 147 L 166 146 L 170 146 L 171 145 L 173 145 L 178 141 L 178 134 L 177 132 L 171 126 L 162 122 L 161 126 L 157 130 L 153 132 L 151 132 L 150 133 L 146 133 L 145 134 L 136 133 L 129 130 L 125 126 L 124 122 L 115 126 L 109 132 Z"/>
<path fill="#539bae" fill-rule="evenodd" d="M 127 167 L 127 172 L 128 174 L 131 176 L 155 176 L 157 175 L 159 172 L 159 167 L 159 168 L 155 171 L 131 171 L 129 170 L 127 168 Z M 179 142 L 174 146 L 172 146 L 171 147 L 160 148 L 160 154 L 161 155 L 169 155 L 176 152 L 179 148 Z M 107 142 L 107 148 L 109 150 L 109 151 L 115 154 L 125 155 L 126 153 L 126 148 L 119 148 L 118 147 L 115 147 L 114 146 L 112 146 Z"/>
<path fill="#a8a8a7" fill-rule="evenodd" d="M 127 148 L 127 150 L 141 150 L 142 149 L 145 149 L 146 150 L 159 150 L 159 148 Z"/>
</svg>