<svg xmlns="http://www.w3.org/2000/svg" viewBox="0 0 256 256">
  <rect x="117" y="24" width="22" height="52" rx="1" fill="#FFFFFF" fill-opacity="0.120" transform="rotate(0.000 128 128)"/>
  <rect x="117" y="24" width="22" height="52" rx="1" fill="#FFFFFF" fill-opacity="0.179" transform="rotate(22.500 128 128)"/>
  <rect x="117" y="24" width="22" height="52" rx="1" fill="#FFFFFF" fill-opacity="0.237" transform="rotate(45.000 128 128)"/>
  <rect x="117" y="24" width="22" height="52" rx="1" fill="#FFFFFF" fill-opacity="0.296" transform="rotate(67.500 128 128)"/>
  <rect x="117" y="24" width="22" height="52" rx="1" fill="#FFFFFF" fill-opacity="0.355" transform="rotate(90.000 128 128)"/>
  <rect x="117" y="24" width="22" height="52" rx="1" fill="#FFFFFF" fill-opacity="0.413" transform="rotate(112.500 128 128)"/>
  <rect x="117" y="24" width="22" height="52" rx="1" fill="#FFFFFF" fill-opacity="0.472" transform="rotate(135.000 128 128)"/>
  <rect x="117" y="24" width="22" height="52" rx="1" fill="#FFFFFF" fill-opacity="0.531" transform="rotate(157.500 128 128)"/>
  <rect x="117" y="24" width="22" height="52" rx="1" fill="#FFFFFF" fill-opacity="0.589" transform="rotate(180.000 128 128)"/>
  <rect x="117" y="24" width="22" height="52" rx="1" fill="#FFFFFF" fill-opacity="0.648" transform="rotate(202.500 128 128)"/>
  <rect x="117" y="24" width="22" height="52" rx="1" fill="#FFFFFF" fill-opacity="0.707" transform="rotate(225.000 128 128)"/>
  <rect x="117" y="24" width="22" height="52" rx="1" fill="#FFFFFF" fill-opacity="0.765" transform="rotate(247.500 128 128)"/>
  <rect x="117" y="24" width="22" height="52" rx="1" fill="#FFFFFF" fill-opacity="0.824" transform="rotate(270.000 128 128)"/>
  <rect x="117" y="24" width="22" height="52" rx="1" fill="#FFFFFF" fill-opacity="0.883" transform="rotate(292.500 128 128)"/>
  <rect x="117" y="24" width="22" height="52" rx="1" fill="#FFFFFF" fill-opacity="0.941" transform="rotate(315.000 128 128)"/>
  <rect x="117" y="24" width="22" height="52" rx="1" fill="#FFFFFF" fill-opacity="1.000" transform="rotate(337.500 128 128)"/>
</svg>
